REM GENRE Game
REM DATE 2010
REM DISCID 070EB213
REM COMMENT "ExactAudioCopy v0.95b4"
PERFORMER "кс▒∙╟д╟я╟╗╞у╟┬╟~╟▌╟я╟─╟_ (пB┤╦╞ё╟kдl+плижлi)"
TITLE "УFУf░gоc╟м╟ц╟▄б@╟ж╟ц╟┤╟╞╟ч╟▒╟в╟я╟┼╟─╟х╟┐╟лб╨┤╦╟U║tл╡Е╤б╨"
FILE "кс▒∙╟д╟я╟╗╞у╟┬╟~╟▌╟я╟─╟_ (пB┤╦╞ё╟kдl+плижлi) - УFУf░gоc╟м╟ц╟▄б@╟ж╟ц╟┤╟╞╟ч╟▒╟в╟я╟┼╟─╟х╟┐╟лб╨┤╦╟U║tл╡Е╤б╨.ape" WAVE
  TRACK 01 AUDIO
    TITLE "╞Ё╟O╞Ї╟U┤╦╟Uд╓дk"
    PERFORMER "кс▒∙╟д╟я╟╗╞у╟┬╟~╟▌╟я╟─╟_ (пB┤╦╞ё╟kдl+плижлi)"
    INDEX 01 00:00:00
  TRACK 02 AUDIO
    TITLE "з°╟V╟A╟s╟Uиp╟U╞Ёоa"
    PERFORMER "кс▒∙╟д╟я╟╗╞у╟┬╟~╟▌╟я╟─╟_ (пB┤╦╞ё╟kдl+плижлi)"
    INDEX 00 03:19:09
    INDEX 01 03:20:72
  TRACK 03 AUDIO
    TITLE "┤╦╟U║ыУэ╟Uоззj"
    PERFORMER "кс▒∙╟д╟я╟╗╞у╟┬╟~╟▌╟я╟─╟_ (пB┤╦╞ё╟kдl+плижлi)"
    INDEX 00 06:15:58
    INDEX 01 06:17:48
  TRACK 04 AUDIO
    TITLE "юю╟U┼]кл╟F╟H"
    PERFORMER "кс▒∙╟д╟я╟╗╞у╟┬╟~╟▌╟я╟─╟_ (пB┤╦╞ё╟kдl+плижлi)"
    INDEX 00 08:59:57
    INDEX 01 09:01:48
  TRACK 05 AUDIO
    TITLE "┤P╟R╗R╞ъф\╟sбIбIбу╟з╟х╟▌╟ч╚╕╟л╟х╟я╟╥╟чбу"
    PERFORMER "кс▒∙╟д╟я╟╗╞у╟┬╟~╟▌╟я╟─╟_ (пB┤╦╞ё╟kдl+плижлi)"
    INDEX 00 12:21:58
    INDEX 01 12:23:48
  TRACK 06 AUDIO
    TITLE "Т├╞ъ┤╦╟U╞Ё╟W╞ўбу╟│╟с╟Ё╟{╟ч╟└╟Ё╟г╟ч╟╝╞у╚╕╟й╟ч╟│╟с╟─╟ч╟┬бу"
    PERFORMER "кс▒∙╟д╟я╟╗╞у╟┬╟~╟▌╟я╟─╟_ (пB┤╦╞ё╟kдl+плижлi)"
    INDEX 00 15:31:09
    INDEX 01 15:32:72
  TRACK 07 AUDIO
    TITLE "╣Dд╞оv╟U╞Ё╟O╟c╞ў╟│╟у╞у"
    PERFORMER "кс▒∙╟д╟я╟╗╞у╟┬╟~╟▌╟я╟─╟_ (пB┤╦╞ё╟kдl+плижлi)"
    INDEX 00 18:20:21
    INDEX 01 18:22:15
  TRACK 08 AUDIO
    TITLE "Ф@╟Uдь╞Ё╞■╞ъ╞√╟z╟Uйї╟W╟Q╞¤бу╟╠╟в╟▄╟л╞у╟╘╟ябу"
    PERFORMER "кс▒∙╟д╟я╟╗╞у╟┬╟~╟▌╟я╟─╟_ (пB┤╦╞ё╟kдl+плижлi)"
    INDEX 00 20:50:48
    INDEX 01 20:52:43
  TRACK 09 AUDIO
    TITLE "┼]дk╟Uеxй╥╟Vдj╞ъ╟D╞Є╞¤бIбу╟╥╟ц╟я╟┬╟ябу"
    PERFORMER "кс▒∙╟д╟я╟╗╞у╟┬╟~╟▌╟я╟─╟_ (пB┤╦╞ё╟kдl+плижлi)"
    INDEX 00 23:43:56
    INDEX 01 23:45:43
  TRACK 10 AUDIO
    TITLE "╖R╟U┴┘╟r╟O╞∙╟t"
    PERFORMER "кс▒∙╟д╟я╟╗╞у╟┬╟~╟▌╟я╟─╟_ (пB┤╦╞ё╟kдl+плижлi)"
    INDEX 00 25:21:49
    INDEX 01 25:23:43
  TRACK 11 AUDIO
    TITLE "лф╞ъеX╟Vеj╞ъ╟ж╟ч╟░╞у╟ч"
    PERFORMER "кс▒∙╟д╟я╟╗╞у╟┬╟~╟▌╟я╟─╟_ (пB┤╦╞ё╟kдl+плижлi)"
    INDEX 00 29:23:28
    INDEX 01 29:25:19
  TRACK 12 AUDIO
    TITLE "дi╝╟╟s╟U╟з╟ч╞у╟╖╟ч"
    PERFORMER "кс▒∙╟д╟я╟╗╞у╟┬╟~╟▌╟я╟─╟_ (пB┤╦╞ё╟kдl+плижлi)"
    INDEX 00 31:32:64
    INDEX 01 31:34:57
  TRACK 13 AUDIO
    TITLE "╢}╞ў╟M╟V╞ъ╞ў╟Q╞ъбу╕TК╩╟U┤vбу"
    PERFORMER "кс▒∙╟д╟я╟╗╞у╟┬╟~╟▌╟я╟─╟_ (пB┤╦╞ё╟kдl+плижлi)"
    INDEX 00 34:07:40
    INDEX 01 34:09:34
  TRACK 14 AUDIO
    TITLE "┼]д¤╞√╟e╟U╝~╞{╟Q╗@"
    PERFORMER "кс▒∙╟д╟я╟╗╞у╟┬╟~╟▌╟я╟─╟_ (пB┤╦╞ё╟kдl+плижлi)"
    INDEX 00 36:51:07
    INDEX 01 36:52:73
  TRACK 15 AUDIO
    TITLE "зg╟V╖R╞¤╟U╟╙╟ц╟я╟╖╟╡бу╟Ё╟{╟~╟╡╚╕╟│╟с╟─╞у╟ш╟ябу"
    PERFORMER "кс▒∙╟д╟я╟╗╞у╟┬╟~╟▌╟я╟─╟_ (пB┤╦╞ё╟kдl+плижлi)"
    INDEX 00 42:00:28
    INDEX 01 42:02:17
  TRACK 16 AUDIO
    TITLE "еD├D║qбuп╡▒K╟U┤╦╟U╗R╜ёЕ╤бv"
    PERFORMER "кс▒∙╟д╟я╟╗╞у╟┬╟~╟▌╟я╟─╟_ (пB┤╦╞ё╟kдl+плижлi)"
    INDEX 00 44:35:35
    INDEX 01 44:37:17
  TRACK 17 AUDIO
    TITLE "╟д╟я╟├╟}╟я╟мбu╟k╞√╞¤╞ъды╟U╞Ё╟O╞Ї╟W╟Q╞¤бv"
    PERFORMER "кс▒∙╟д╟я╟╗╞у╟┬╟~╟▌╟я╟─╟_ (пB┤╦╞ё╟kдl+плижлi)"
    INDEX 00 48:41:65
    INDEX 01 48:43:55
  TRACK 18 AUDIO
    TITLE "еD├D║qбuп╡▒K╟U┤╦╟U╗R╜ёЕ╤бvoff vocal ver."
    PERFORMER "кс▒∙╟д╟я╟╗╞у╟┬╟~╟▌╟я╟─╟_ (пB┤╦╞ё╟kдl+плижлi)"
    INDEX 00 53:38:65
    INDEX 01 53:40:48
  TRACK 19 AUDIO
    TITLE "╟д╟я╟├╟}╟я╟мбu╟k╞√╞¤╞ъды╟U╞Ё╟O╞Ї╟W╟Q╞¤бvoff vocal ver."
    PERFORMER "кс▒∙╟д╟я╟╗╞у╟┬╟~╟▌╟я╟─╟_ (пB┤╦╞ё╟kдl+плижлi)"
    INDEX 00 57:45:26
    INDEX 01 57:47:11
